<?xml version="1.0" encoding="utf-8"?>
<!-- Generator: Adobe Illustrator 27.5.0, SVG Export Plug-In . SVG Version: 6.00 Build 0)  -->
<svg version="1.1" xmlns="http://www.w3.org/2000/svg" xmlns:xlink="http://www.w3.org/1999/xlink" x="0px" y="0px"
	 viewBox="0 0 500 500" style="enable-background:new 0 0 500 500;" xml:space="preserve">
<g id="BACKGROUND">
	<g>
		<rect style="fill:#FFFFFF;" width="500" height="500"/>
	</g>
</g>
<g id="OBJECTS">
	<g>
		<path style="fill:#74A4E4;" d="M358.435,215.765c-4.46-1.76-11.29-0.39-16.54-0.99c0,0-0.02,0-0.04-0.01
			c-0.4-0.04-0.79-0.1-1.17-0.17c-0.09-0.02-0.19-0.04-0.3-0.06c-0.28-0.04-0.6-0.09-0.94-0.15c0.8-1.36,2.13-3.75,1.84-4.2
			c-0.42-0.64-2.59-2.49-3.15-2.68c-0.56-0.2-11.63,0.06-12.33,0.51c-0.34,0.22-0.68,1.13-0.94,2.02c-0.2-0.14-0.33-0.22-0.33-0.22
			c-4.42-3.61-8.34-6.81-12.25-10.02c-9.8-8.07-16.36-13.12-33.7-13.12c-8,0-43.48-0.25-58.23-0.21
			c-12.23,0.04-22.29,5.15-31.18,12.98c-4.14,3.65-8.4,7.15-10.97,12.4c-1.03,2.1-3.95,3.34-6.11,4.82
			c-2.08,1.44-3.57,2.92-2.68,5.79c0.1,0.32,0.09,0.67,0.02,1.04c4.41,1,8.49,3.2,11.77,6.39c2.17-1.2,4.58-1.82,7.08-1.82
			c4.21,0,8.16,1.78,10.93,4.87c1.71-0.06,3.54-0.1,5.5-0.12c0.39-3.15,0.98-9.46-1.75-10.66c-5.48-2.41-20.77-2.02-20.77-2.02
			s9.09-1.62,21,0c6.7,0.92,6.5,4.48,6.45,5.37c-0.1,1.51-0.33,4.63-0.58,8.16c1.13,0.22,2.23,0.52,3.29,0.9
			c1.12-1.61,2.63-2.78,4.72-3.08c5.46-0.65,8.33,5.84,9.89,13.02c1.07-0.15,2.14-0.22,3.22-0.22c0.56,0,1.12,0.02,1.71,0.06
			c-0.22-0.24-0.39-0.53-0.49-0.84c-0.38-1.5,0.29-1.94,0.87-1.84c0.5,0.09,0.99,0.18,1.48,0.28h0.01c2.06-2.49,4.59-4.53,7.42-6
			c-0.4-0.23-0.79-0.46-1.16-0.68c-2.7-1.6-5.76-5.09-6.39-7.47c14.04,2.11,25.37,3.89,39.08,5.95c0,0,0.05,0.01,0.14,0.02
			c0.06,0.01,0.13,0.02,0.19,0.03c0.21,0.03,0.52,0.07,0.88,0.13c1.68,0.26,4.59,0.73,5.12,1.01c1.08,0.57,1.21,2.98,1,5.37
			c-0.21,2.49-1.27,3.78-1.43,3.96c0.09-0.18,0.59-1.27,0.79-3.89c0.13-1.63-0.19-2.83-0.67-3.78c-0.15-0.32-3.31-0.86-4.56-1.07
			c0.42,3.79-0.55,6.37-2.04,7.87c0.72,1.02,1.37,2.11,1.94,3.26c1.18,0.22,2.32,0.63,3.36,1.21c2.18-3.49,6.04-5.71,10.27-5.71
			c5.91,0,10.84,4.25,11.89,9.85c9.32-1.63,18.76-2.65,28.3-2.65c4.33,0,8.64,0.21,12.78,0.63c2.89,0.27,5.58,0.6,8.1,0.99
			c3.32-3.37,7.87-5.3,12.72-5.3c0.35,0,0.71,0.01,1.06,0.03c0.38,0.03,0.72-0.18,0.88-0.52c0.35-0.72,1.42-1.52,3.01-1.91
			c1.55-0.38,2.47-0.64,2.5-2.24C369.115,230.215,368.055,220.135,358.435,215.765z M214.835,211.325c-0.49-1.5-1.24-3.38-2-3.55
			c-1.28-0.29-8.17-0.17-8.87,0c-0.71,0.17-1.79,1.97-1.79,2.31c0,0.18,0.55,1.02,1.39,1.88c0,0,1.04,1.1,1.69,1.36
			c0.65,0.26,2.58,0.67,2.58,0.67s-3.04,0.12-3.87,0c-0.62-0.09-2.08-1.33-2.79-1.95c-7.65,0.25-15.57,0.48-16.28,0.3
			c-1.47-0.38-2.12-0.89-2.32-1.82c-0.1-0.48,0.34-1.59,0.8-2.11c5.46-6.12,12.45-11.85,17.35-14.21c2.48-1.2,5.67-1.99,8.56-2.02
			c1.47-0.02,4,0.79,4.27,3.08c0.6,5,1.14,10.02,1.6,15.27C215.185,210.855,215.055,211.135,214.835,211.325z M219.285,205.895
			c-0.3-3.89-0.28-7.81-0.45-11.71c-0.1-2.07,0.61-4.4,13.36-4.4c20.99,0,31.96,0.33,52.95,0.52c6.64,0.06,11.16,2.04,16.54,5.96
			c2.84,2.07,5.72,4.08,8.48,6.26c3.5,2.75,6.9,5.65,10.34,8.48c0.42,0.3,0.34,0.83-0.4,0.82c-0.84,0.04-39.43-0.11-63.65-0.28
			c-10.54-0.07-21.09-0.22-31.63-0.47C220.605,210.985,219.605,210.005,219.285,205.895z M341.015,233.275
			c-1.94,4.8-5.97,5.47-10.35,5.48c-15.63,0.05-21.23,0.08-36.85,0.06c-1.84-0.01-3.81,0-5.49-0.63c-1.82-0.68-3.35-2.13-5.03-3.2
			c-1.22-0.78-2.41-1.95-3.73-2.16c-11.74-1.84-20.13-3.09-30.34-4.63c0,0-0.05-0.01-0.15-0.02c-1.43-0.16-13.04-1.5-17.11-3.36
			c-3.29-1.5-6.37-5.19-6.43-8.31c0,0,0.69,2.8,5.17,5.61c2.77,1.74,14.33,3.18,14.33,3.18c10.87,1.2,19,2,31.15,3.44
			c2.2,0.26,4.39,0.72,6.55,1.23c2.71,0.65,5.37,2.06,8.06,2.07c18.16,0.05,26.3-0.16,44.46-0.37c1.29-0.01,2.6-0.59,3.85-1.07
			c1.31-0.5,2.5-1.37,3.83-1.77c4.46-1.36,14.99-3.51,16.52-6.68c0.7-1.46-1.6-4.3-3.62-5.11c0.52,0.15,4.72,1.49,5.53,4.57
			c0.84,3.2-2.17,5.03-8.2,7.2c-3.3,1.19-6.71,2.07-10.05,3.16C342.335,232.225,341.265,232.655,341.015,233.275z M360.405,234.185
			c-3.17,3.94-8.31,9.06-12.51,9.89c-3.87,0.76-2.82-4.51-2.76-8.29c-0.59,0.1-1.27,0.29-1.54,0.6c-0.55,0.61-0.87,5.36-0.87,5.36
			s-0.33-3.08,0.26-5.74c0.28-1.26,1.02-1.34,1.02-1.34c10.43-2.55,16.76-6.39,18.29-8.46
			C363.355,227.035,363.055,230.895,360.405,234.185z"/>
		<g>
			<g>
				<path style="fill:#002D49;" d="M382.824,300.024c4.025-17.07-3.331-31.003-19.742-36.788
					c-14.81-5.237-31.477-5.715-47.134-4.399c-32.472,3.049-62.823,16.302-94.889,22.69c-24.354,4.747-50.563,6.153-74.413-2.432
					c-26.922-10.126-40.358-36.207-29.026-63.42c4.623-11.964,14.746-20.576,23.385-29.433c2.45-2.648,4.367-6.592,4.702-9.225
					c0,0,7.596,2.378,7.596,2.378c-0.319,5.761-5.021,7.493-8.017,10.827c-8.043,8.638-17.722,16.806-21.818,27.803
					c-4.314,10.653-4.779,22.736,0.228,33.088c13.045,25.856,46.364,28.62,72.245,27.177c48.92-3.167,94.508-30.328,144.458-25.317
					c8.368,0.783,16.753,2.168,24.617,5.403c12.549,5.046,21.904,15.641,21.378,29.733c-0.111,4.235-0.955,8.383-2.624,12.275
					c0,0-0.258,0.537-0.712,0.384C382.67,300.637,382.824,300.024,382.824,300.024L382.824,300.024z"/>
				<path style="fill:#002D49;" d="M378.989,292.47c-0.26-11.276-8.034-20.757-18.246-24.621
					c-10.158-3.997-21.382-3.909-32.158-3.602c-22.095,0.87-43.134,8.049-64.385,13.629c-14.315,3.765-28.988,6.569-43.763,7.381
					c10.909-1.972,21.66-4.373,32.296-7.412c17.833-4.883,35.052-11.39,53.446-14.845c16.659-3.06,39.754-4.25,55.485,2.72
					C372.088,270.138,379.945,281.073,378.989,292.47L378.989,292.47z"/>
			</g>
			<g>
				<path style="fill:#002D49;" d="M195.025,149.985c-3.39-1.31-15.54-6-17.33-6.61c-1.76-0.59-16.61-0.43-21.25-0.36
					c-0.81,0.01-1.5,0.59-1.64,1.39c-0.38,2-0.98,5.57-0.66,6.16c0.46,0.82,3.57,2.98,3.08,4.85c-0.49,1.89-9.72,16.8-10.65,17.76
					c-0.93,0.96-4.43,2.75-4.37,3.49c0.05,0.74,0.83,5.08,1.15,5.57c0.26,0.38,6.35,1.43,8.65,1.81c0.55,0.09,1.11-0.06,1.55-0.41
					c0.84-0.66,2.18-1.71,2.4-1.74c0.32-0.04,8.59,2.91,13.76,4.19c5.17,1.27,11.87-2.89,14.6-7.03c2.73-4.13,2.75-16.45,3.19-17.51
					c0.32-0.81,3.78-1.02,5.44-1.08c0.52-0.02,0.95-0.39,1.05-0.89l1.71-8.33C195.815,150.715,195.535,150.175,195.025,149.985z
					 M182.865,175.075c-2.21,6.05-8.5,8.33-11.56,8.34c-1.67,0-13.74-4.25-13.78-4.75c-0.04-0.49-0.12-4.31,1.34-6.72
					c1.47-2.41,6.58-11.67,7.39-12.54c0.8-0.88,3.98-1.07,5.7-0.99c1.07,0.05,5.53,1.33,8.74,2.29c2.05,0.61,3.43,2.55,3.32,4.69
					C183.865,168.675,183.535,173.255,182.865,175.075z M174.975,146.505c-1.66-0.1-4.07,4.4-4.21,5.66c0,0-0.62-0.73-0.89-1.88
					c-0.34-1.51-1.74-2.54-3.3-2.53c-2.94,0.02-6.81,0.07-7.4,0.21c-0.98,0.22-2.7,2.21-2.7,2.21s0.49-4.94,0.91-5.32
					c0.75-0.67,16.14-0.19,19.2,0.27c1.76,0.26,13.36,4.72,14.08,5C189.945,149.925,178.235,146.675,174.975,146.505z"/>
				<path style="fill:#002D49;" d="M206.891,161.7l-12.791-2.63l1.538-7.481l12.791,2.63c0.318,0.065,0.523,0.376,0.458,0.695
					l-1.301,6.329C207.52,161.56,207.209,161.765,206.891,161.7z"/>
				<path style="fill:#002D49;" d="M240.025,162.155l-29.17-8.28c-0.45-0.13-0.92,0.16-1.01,0.61l-1.55,7.53
					c-0.09,0.45,0.22,0.89,0.69,0.95l30.07,3.91c0.42,0.05,0.81-0.23,0.89-0.64l0.65-3.14
					C240.685,162.675,240.435,162.275,240.025,162.155z M211.905,156.705l-0.95,0.73l0.42-2.15l27.94,7.58L211.905,156.705z"/>
				
					<rect x="208.218" y="155.215" transform="matrix(0.9795 0.2014 -0.2014 0.9795 36.1498 -38.8592)" style="fill:#002D49;" width="1.705" height="6.069"/>
				
					<rect x="198.589" y="150.289" transform="matrix(0.9795 0.2014 -0.2014 0.9795 35.7344 -37.3656)" style="fill:#002D49;" width="5.83" height="13.298"/>
				<path style="fill:#002D49;" d="M203.025,164.035l-2.86-0.59l-2.86-0.58c0,0-5.88,2.83-6.27,3.72l-3.08,14.96
					c0,0-1.05,2.01,7.71,3.81c8.75,1.8,8.58-0.46,8.58-0.46l3.08-14.96C207.315,168.955,203.025,164.035,203.025,164.035z
					 M202.605,184.625l0.05-0.98c0.36-5.98-2.53-11.82-7.72-14.82c-0.93-0.53-1.77-1.18-2.39-1.95c0,0,6.08,2.86,13.11,3.04
					L202.605,184.625z"/>
				<path style="fill:#002D49;" d="M206.109,152.746l-7.183-1.477c-0.194-0.04-0.318-0.229-0.278-0.422l0.265-1.291
					c0.141-0.688,0.813-1.13,1.501-0.989l5.394,1.109c0.687,0.141,1.13,0.813,0.989,1.501l-0.265,1.291
					C206.492,152.662,206.303,152.786,206.109,152.746z"/>
				<path style="fill:#002D49;" d="M170.378,156.308c0,0-2.893,7.29-3.432,9.92c-0.168,0.822,0.087,3.505,1.087,6.733
					c1.115,3.599,3.046,7.751,3.461,8.056c0.786,0.579,2.138,0.353,2.395-0.134c0.093-0.176-1.691-2.95-3.057-8.113
					c-0.999-3.774,0.304-6.56,0.754-7.607c1.3-3.022,3.828-7.063,3.828-7.063L170.378,156.308z"/>
			</g>
		</g>
		<g>
			<path style="fill:#205896;" d="M149.457,222.895c0,2.58-2.092,4.672-4.672,4.672c-2.58,0-4.672-2.092-4.672-4.672
				c0-2.58,2.091-4.672,4.672-4.672C147.365,218.223,149.457,220.315,149.457,222.895z"/>
			<circle style="fill:#205896;" cx="377.445" cy="247.675" r="3.507"/>
			<path style="fill:#205896;" d="M375.255,255.585c-2.77-4.73-7.88-7.91-13.76-7.91c-3.98,0-7.62,1.46-10.41,3.89
				c5.67,1,10.5,2.37,14.98,4.21c6.59,2.65,12.01,6.59,15.94,11.39c0.58-1.1,0.91-2.35,0.91-3.69
				C382.915,259.195,379.505,255.715,375.255,255.585z"/>
			<path style="fill:#205896;" d="M287.705,244.155c-4.39,0-8.12,2.81-9.52,6.72c-1.45-1.36-3.35-2.24-5.46-2.39
				c-3.42-7.83-11.25-13.3-20.35-13.3c-8.29,0-15.51,4.55-19.32,11.29c-0.94-0.12-1.9-0.19-2.87-0.19c-2.13,0-4.18,0.31-6.13,0.87
				c-3.71-7.1-11.13-11.94-19.68-11.94c-1.87,0-3.67,0.23-5.4,0.66c-2.27-3.5-6.21-5.81-10.69-5.81c-2.76,0-5.31,0.88-7.39,2.37
				c-4.17-4.64-10.23-7.57-16.96-7.57c-8.69,0-16.24,4.86-20.08,12.01c-3.21-7.67-10.5-13.21-19.17-13.9
				c-2.81,9.37-2.31,18.98,1.51,26.88c8.69,17.21,28.59,25.94,59.15,25.94c3.31,0,6.83-0.1,10.41-0.3
				c8.43-0.55,16.84-1.84,25.19-3.55c-2.1-2.25-3.38-5.26-3.38-8.59c0-6.97,5.65-12.62,12.62-12.62c2.23,0,4.33,0.58,6.15,1.6
				c2.08-7.41,8.89-12.84,16.96-12.84c6.82,0,12.74,3.87,15.66,9.54c-3.38,1.28-5.78,4.54-5.78,8.37c0,1.19,0.23,2.32,0.66,3.36
				c2.32-0.65,4.64-1.3,6.98-1.92c1.25-0.34,2.51-0.68,3.76-1.01c7.62-2.01,15.31-3.85,23.09-5.28
				C296.855,247.785,292.705,244.155,287.705,244.155z M162.705,262.185c-9.43,0-17.08-7.65-17.08-17.08
				c0-9.43,7.65-17.08,17.08-17.08c9.43,0,17.07,7.65,17.07,17.08C179.775,254.535,172.135,262.185,162.705,262.185z"/>
			<path style="fill:#205896;" d="M307.195,192.885c0,0.12,0,0.24-0.01,0.35c-5.2-3.8-10.22-6.42-17.37-7.69
				c1.2-1.99,1.89-4.31,1.89-6.8c0-7.28-5.9-13.19-13.18-13.19s-13.19,5.91-13.19,13.19c0,2.11,0.5,4.11,1.38,5.88
				c-1.91-0.01-3.94-0.02-6.05-0.03c-7.71-0.04-16.62-0.08-24.59-0.11c1.35-1.72,3.45-2.82,5.81-2.82c0.01,0,0.02,0,0.02,0
				c1.69-6.03,7.2-10.45,13.76-10.45c2.77,0,5.34,0.79,7.53,2.15c3.16-6.06,9.5-10.2,16.81-10.2c10.48,0,18.97,8.5,18.97,18.97
				c0,0.55-0.03,1.09-0.08,1.63C303.555,184.205,307.195,188.115,307.195,192.885z"/>
			<circle style="fill:#205896;" cx="259.587" cy="165.266" r="3.568"/>
			<path style="fill:#205896;" d="M261.893,248.441c0,2.747-2.227,4.974-4.974,4.974c-2.747,0-4.974-2.227-4.974-4.974
				c0-2.747,2.227-4.974,4.974-4.974C259.666,243.467,261.893,245.694,261.893,248.441z"/>
			<path style="fill:#205896;" d="M233.329,177.017c0,1.105-0.896,2-2,2c-1.105,0-2-0.896-2-2c0-1.105,0.896-2,2-2
				C232.434,175.017,233.329,175.913,233.329,177.017z"/>
			<path style="fill:#205896;" d="M314.011,192.481c0,1.124-0.911,2.036-2.036,2.036c-1.124,0-2.036-0.911-2.036-2.036
				c0-1.124,0.911-2.036,2.036-2.036C313.1,190.445,314.011,191.357,314.011,192.481z"/>
		</g>
	</g>
</g>
<g id="TEXTS">
	
		<text transform="matrix(1 0 0 1 128.1754 333.0095)" style="fill:#002D49; font-family:'Sansita-BlackItalic'; font-size:51.3053px;">Car Wash</text>
	
		<text transform="matrix(1 0 0 1 167.766 362.8493)" style="fill:#205896; font-family:'Montserrat-MediumItalic'; font-size:14.2259px; letter-spacing:2;">Slogan Goes Here</text>
</g>
</svg>
